<?xml version="1.0" encoding="UTF-8" standalone="no"?>
<!-- Created with Inkscape (http://www.inkscape.org/) -->

<svg
   xmlns:dc="http://purl.org/dc/elements/1.1/"
   xmlns:cc="http://creativecommons.org/ns#"
   xmlns:rdf="http://www.w3.org/1999/02/22-rdf-syntax-ns#"
   xmlns:svg="http://www.w3.org/2000/svg"
   xmlns="http://www.w3.org/2000/svg"
   version="1.1"
   width="649"
   height="89"
   viewBox="0 0 649 89"
   id="Layer_1"
   xml:space="preserve"><metadata
   id="metadata3073"><rdf:RDF><cc:Work
       rdf:about=""><dc:format>image/svg+xml</dc:format><dc:type
         rdf:resource="http://purl.org/dc/dcmitype/StillImage" /><dc:title></dc:title></cc:Work></rdf:RDF></metadata><defs
   id="defs3071" />
<description
   id="description3046" />
<g
   id="black">
	<g
   transform="translate(-420,-560)"
   id="color">
		<circle
   cx="545"
   cy="586"
   r="26"
   id="mail"
   style="fill:#bbbbbb" />
	</g>
	<g
   transform="translate(-410,-549)"
   id="Icon">
		<path
   d="m 535,578 15,-13 h -30 l 15,13 z m -4.052,-1.439 4.052,3.326 3.988,-3.326 L 550,586 h -30 l 10.948,-9.439 z M 519,585 v -19 l 11,9.5 -11,9.5 z m 32,0 v -19 l -11,9.5 11,9.5 z"
   id="mail_1_"
   style="fill:#ffffff" />
	</g>
</g>
<path
   d="m 35.459,11.208 c 0,3.018 -2.446,5.467 -5.459,5.467 -3.013,0 -5.459,-2.449 -5.459,-5.467 C 24.541,8.19 29.22,2.915 30,0 c 0.78,2.915 5.459,8.19 5.459,11.208 z"
   id="path6525"
   style="fill:#f05656;display:none" />
<g
   id="g3059"><title
   id="title3061" />
	
	<description
   id="description3063" />
	<g
   id="black_1_">
		<g
   transform="translate(-210,0)"
   id="color_1_">
			<circle
   cx="435"
   cy="26"
   r="26"
   id="Google_x2B_"
   style="fill:#bbbbbb" />
		</g>
		<g
   transform="translate(-200,11)"
   id="Icon_1_">
			<path
   d="m 423.234,12.719 c 0.849,-0.852 0.923,-2.034 0.923,-2.699 0,-2.66 -1.589,-6.8 -4.657,-6.8 -0.961,0 -1.996,0.481 -2.588,1.221 -0.628,0.776 -0.813,1.773 -0.813,2.734 0,2.476 1.442,6.579 4.62,6.579 0.924,-10e-4 1.922,-0.445 2.515,-1.035 l 0,0 0,0 z m -1.073,7.021 c -0.296,-0.038 -0.481,-0.038 -0.85,-0.038 -0.333,0 -2.329,0.074 -3.881,0.592 -0.813,0.296 -3.178,1.182 -3.178,3.806 0,2.624 2.55,4.508 6.505,4.508 3.548,0 5.433,-1.699 5.433,-3.99 0,-1.885 -1.22,-2.882 -4.029,-4.878 l 0,0 0,0 z M 433,16 h -4 v -2 h 4 v -4 h 2 v 4 h 4 v 2 h -4 v 4 h -2 V 16 z M 424.786,3.33 c 0.85,0.703 2.624,2.18 2.624,4.99 0,2.735 -1.552,4.029 -3.104,5.248 -0.48,0.481 -1.035,0.998 -1.035,1.812 0,0.813 0.555,1.257 0.961,1.589 l 1.331,1.034 c 1.627,1.367 3.104,2.625 3.104,5.175 0,3.473 -3.363,6.985 -9.72,6.985 -5.358,0 -7.945,-2.55 -7.945,-5.285 0,-1.331 0.665,-3.215 2.847,-4.509 2.291,-1.405 5.396,-1.588 7.058,-1.7 -0.517,-0.666 -1.109,-1.369 -1.109,-2.513 0,-0.628 0.185,-0.999 0.37,-1.442 -0.407,0.037 -0.813,0.075 -1.183,0.075 -3.917,0 -6.134,-2.921 -6.134,-5.803 0,-1.699 0.776,-3.585 2.365,-4.953 2.107,-1.736 4.62,-2.032 6.615,-2.032 h 7.613 l -2.365,1.33 -2.293,-10e-4 0,0 0,0 z"
   id="g_x2B_"
   style="fill:#ffffff" />
		</g>
	</g>
</g>
<g
   id="g3070"><title
   id="title3072" />
	
	<description
   id="description3074" />
	<g
   id="black_2_">
		<g
   id="color_2_">
			<circle
   cx="325"
   cy="26"
   r="26"
   id="Twitter"
   style="fill:#bbbbbb" />
		</g>
		<g
   transform="translate(10,11)"
   id="Icon_2_">
			<path
   d="M 324.579,4.978 C 323.531,3.787 322.038,3.028 320.386,3 c -3.172,-0.053 -5.745,2.628 -5.745,5.987 0,0.477 0.051,0.942 0.149,1.388 -4.774,-0.31 -9.007,-2.796 -11.84,-6.543 -0.494,0.898 -0.778,1.948 -0.778,3.072 0,2.128 1.014,4.017 2.556,5.133 -0.942,-0.042 -1.827,-0.327 -2.602,-0.794 -10e-4,0.026 -10e-4,0.051 -10e-4,0.077 0,2.972 1.98,5.466 4.608,6.047 -0.482,0.137 -0.99,0.208 -1.513,0.205 -0.37,-0.002 -0.73,-0.044 -1.081,-0.117 0.731,2.438 2.852,4.216 5.366,4.275 -1.966,1.632 -4.443,2.604 -7.134,2.598 -0.464,-10e-4 -0.921,-0.031 -1.37,-0.089 2.542,1.744 5.562,2.76 8.806,2.761 10.566,0.003 16.344,-9.192 16.344,-17.168 0,-0.262 -0.006,-0.522 -0.017,-0.781 1.122,-0.836 2.096,-1.885 2.866,-3.082 -1.03,0.464 -2.137,0.773 -3.299,0.902 1.186,-0.73 2.097,-1.898 2.526,-3.299 -1.111,0.673 -2.34,1.156 -3.648,1.406 l 0,0 z"
   id="twitter"
   style="fill:#ffffff" />
		</g>
	</g>
</g>
<g
   id="black_3_">
	<g
   transform="translate(-350,0)"
   id="color_3_">
		<circle
   cx="775"
   cy="26"
   r="26"
   id="Linkedin"
   style="fill:#bbbbbb" />
	</g>
	<g
   transform="translate(-340,11)"
   id="Icon_3_">
		<path
   d="M 757.965,26.98 V 11.121 h -4.902 V 26.98 h 4.902 z m 0,-21.48 C 757.936,4.081 756.99,3 755.453,3 c -1.537,0 -2.541,1.081 -2.541,2.5 0,1.388 0.975,2.5 2.482,2.5 h 0.029 c 1.567,0 2.542,-1.112 2.542,-2.5 z m 7.997,21.48 v -9.036 c 0,-0.484 0.035,-0.967 0.177,-1.312 0.389,-0.967 1.274,-1.967 2.759,-1.967 1.946,0 3.167,1.105 3.167,3.279 V 26.98 H 777 v -9.277 c 0,-4.97 -2.653,-7.282 -6.192,-7.282 -2.901,0 -4.175,1.622 -4.882,2.726 l 0.035,-2.121 h -4.926 c 0.071,1.518 0,15.955 0,15.955 l 4.927,-0.001 0,0 z"
   id="linkedin"
   style="fill:#ffffff" />
	</g>
</g>
<g
   id="g3086">
	<circle
   cx="524"
   cy="25"
   r="25"
   id="circle3088"
   style="fill:#bbbbbb" />
	<path
   d="m 536.128,31.185 c -0.298,1.297 -1.36,2.254 -2.636,2.396 -3.024,0.338 -6.086,0.34 -9.133,0.338 -3.048,0.002 -6.109,0 -9.133,-0.338 -1.277,-0.143 -2.338,-1.099 -2.636,-2.396 -0.425,-1.848 -0.425,-3.863 -0.425,-5.765 0,-1.902 0.005,-3.918 0.429,-5.766 0.299,-1.297 1.359,-2.254 2.636,-2.396 3.024,-0.338 6.086,-0.34 9.133,-0.338 3.048,-0.002 6.109,0 9.133,0.338 1.277,0.142 2.338,1.099 2.636,2.396 0.425,1.848 0.422,3.864 0.422,5.766 10e-4,1.901 -0.002,3.917 -0.426,5.765 z"
   id="path3090"
   style="fill:#ffffff" />
	<polygon
   points="521.164,28.713 521.164,20.919 527.914,24.816 "
   id="polygon3092"
   style="fill:#bbbbbb" />
</g>
<path
   d="m 624,50 c 13.807,0 25,-11.193 25,-25 0,-13.807 -11.193,-25 -25,-25 -13.807,0 -25,11.193 -25,25 0,13.807 11.193,25 25,25 z M 613.62,25.474 c -0.368,-1.064 -0.531,-2.282 -0.531,-3.643 0,-2.416 0.766,-3.328 1.795,-4.616 -0.787,-2.755 0.282,-4.638 0.282,-4.638 0,0 1.654,-0.337 4.78,1.863 1.694,-0.713 6.212,-0.773 8.35,-0.159 1.311,-0.852 3.711,-2.061 4.679,-1.723 0.262,0.415 0.827,1.624 0.343,4.279 0.328,0.583 2.037,1.823 2.043,5.331 -0.027,1.294 -0.165,2.386 -0.419,3.31 0.048,0 -0.325,1.145 -0.413,1.142 -1.133,2.446 -3.458,3.36 -7.215,3.739 1.217,0.753 1.567,1.698 1.567,4.255 0,2.557 -0.035,2.9 -0.027,3.488 0.013,0.965 1.452,1.427 1.398,1.738 -0.054,0.31 -1.204,0.26 -1.742,0.075 -1.523,-0.522 -1.371,-1.767 -1.371,-1.767 l -0.051,-3.418 c 0,0 0.104,-1.84 -0.588,-1.84 v 5.595 c 0,1.216 0.867,1.586 0.867,2.035 0,0.773 -1.583,-0.073 -2.071,-0.555 -0.743,-0.733 -0.658,-2.289 -0.641,-3.518 0.017,-1.188 -0.011,-3.785 -0.011,-3.785 l -0.504,0.01 c 0,0 0.207,5.674 -0.266,6.708 -0.611,1.328 -2.457,1.784 -2.457,1.18 0,-0.407 0.454,-0.277 0.706,-1.189 0.215,-0.775 0.141,-6.56 0.141,-6.56 0,0 -0.591,0.343 -0.591,1.427 0,0.495 -0.014,3.329 -0.014,4.171 0,1.061 -1.533,1.665 -2.269,1.665 -0.373,0 -0.837,-0.018 -0.837,-0.212 0,-0.491 1.401,-0.778 1.401,-1.799 0,-0.885 -0.019,-3.161 -0.019,-3.161 0,0 -0.707,0.119 -1.715,0.119 -2.541,0 -3.345,-1.593 -3.727,-2.485 -0.498,-1.161 -1.143,-1.707 -1.829,-2.143 -0.421,-0.268 -0.518,-0.583 -0.031,-0.674 2.249,-0.416 2.824,2.507 4.327,2.973 1.072,0.332 2.451,0.189 3.137,-0.247 0.09,-0.893 0.745,-1.665 1.291,-2.071 -3.821,-0.361 -6.086,-1.665 -7.261,-3.761 -0.014,0 -0.553,-1.139 -0.507,-1.139 l 0,0 z"
   id="Github_11_"
   style="fill:#bbbbbb" />
<path
   d="M 20,79 C 20,84.52 15.52,89 10,89 4.48,89 0,84.52 0,79 0,73.48 8.571,63.832 10,58.5 11.429,63.832 20,73.48 20,79 z"
   id="path6525_3_"
   style="fill:#6687c5" />
<path
   d="M 60,79 C 60,84.52 55.52,89 50,89 44.48,89 40,84.52 40,79 40,73.48 48.571,63.832 50,58.5 51.429,63.832 60,73.48 60,79 z"
   id="path6525_1_"
   style="fill:#f05656" />
<path
   d="m 100,79 c 0,5.52 -4.48,10 -10,10 -5.52,0 -10,-4.48 -10,-10 0,-5.52 8.571,-15.168 10,-20.5 1.429,5.332 10,14.98 10,20.5 z"
   id="path6525_2_"
   style="fill:#e48430" />
<path
   d="m 140,79 c 0,5.52 -4.48,10 -10,10 -5.52,0 -10,-4.48 -10,-10 0,-5.52 8.571,-15.168 10,-20.5 1.429,5.332 10,14.98 10,20.5 z"
   id="path6525_4_"
   style="fill:#82b13f" />
<path
   d="m 180,79 c 0,5.52 -4.48,10 -10,10 -5.52,0 -10,-4.48 -10,-10 0,-5.52 8.571,-15.168 10,-20.5 1.429,5.332 10,14.98 10,20.5 z"
   id="path6525_5_"
   style="fill:#8d8884" />
</svg>